<?xml version="1.0" encoding="UTF-8"?>
<!DOCTYPE svg PUBLIC "-//W3C//DTD SVG 1.1//EN" "http://www.w3.org/Graphics/SVG/1.1/DTD/svg11.dtd">
<!-- Creator: CorelDRAW 2020 (64-Bit) -->
<svg xmlns="http://www.w3.org/2000/svg" xml:space="preserve" width="5in" height="5in" version="1.1" style="shape-rendering:geometricPrecision; text-rendering:geometricPrecision; image-rendering:optimizeQuality; fill-rule:evenodd; clip-rule:evenodd"
viewBox="0 0 5000 5000"
 xmlns:xlink="http://www.w3.org/1999/xlink"
 xmlns:xodm="http://www.corel.com/coreldraw/odm/2003">
 <defs>
  <style type="text/css">
   <![CDATA[
    .fil0 {fill:url(#id0);fill-rule:nonzero}
   ]]>
  </style>
  <linearGradient id="id0" gradientUnits="userSpaceOnUse" x1="2385.85" y1="537.37" x2="2385.85" y2="4348.19">
   <stop offset="0" style="stop-opacity:1; stop-color:#721482"/>
   <stop offset="1" style="stop-opacity:1; stop-color:#E650FF"/>
  </linearGradient>
 </defs>
 <g id="Layer_x0020_1">
  <metadata id="CorelCorpID_0Corel-Layer"/>
  <g id="_2450705093040">
   <g>
    <g>
     <path class="fil0" d="M3949.4 1914.54l-375.73 -136.76c135.85,-112.25 193.85,-290.3 152.26,-459.5 -81.73,-332.42 -487.04,-458.61 -743.1,-232.24l-259.42 229.33 -51.32 -343.93c-50.74,-338.61 -442.76,-501.51 -718.54,-299.75 -137.89,100.88 -211.24,274.78 -178.72,451.36l-354.24 -128.93c-174.28,-63.44 -367.73,26.75 -431.18,201.06l-153.4 421.46c-21.18,58.19 8.83,122.55 67.03,143.72 23.61,8.59 1727.44,628.74 1752.46,637.84 -70.91,0 -1623.83,0 -1692.16,0 -61.93,0 -112.13,50.2 -112.13,112.13l0 1569.82c0,185.48 150.91,336.39 336.39,336.39l897.04 0 448.52 0 897.04 0c185.48,0 336.39,-150.91 336.39,-336.39l0 -1277.54 86.75 31.58c57.92,21.09 122.44,-8.59 143.72,-67.02l153.41 -421.46c63.43,-174.31 -26.76,-367.72 -201.07,-431.17zm-1976.89 2277.74l-784.91 0c-61.83,0 -112.13,-50.3 -112.13,-112.13l0 -1457.69 897.05 -0 0 1569.82zm448.52 0l-224.26 0 0 -1569.82 224.26 0 0 1569.82zm710.32 -2938.21c130.07,-115 335.43,-50.49 376.8,117.77 44.11,179.4 -129.28,334.95 -302.83,271.89 -147.62,-53.73 -216.79,-78.91 -364.61,-132.71l290.65 -256.94zm-1045.39 -401.37c140.15,-102.52 338.67,-19.33 364.35,152l57.5 385.14c-41.39,-15.06 -323.88,-117.89 -364.58,-132.7 -173.57,-63.21 -206.35,-295.4 -57.26,-404.44zm52.82 1118.78l-1053.67 -383.51 115.05 -316.09c21.15,-58.1 85.63,-88.15 143.72,-67.02 117.91,42.91 911.93,331.91 948.3,345.15l-153.4 421.47zm421.47 153.41l-210.74 -76.71 153.41 -421.46 210.74 76.7 -153.41 421.47zm982.07 1955.26c0,61.83 -50.3,112.13 -112.13,112.13l-784.91 0 0 -1569.82 626.36 0 270.68 98.52 0 1359.17 -0.01 0zm397.38 -1811.16l-115.04 316.1 -1053.68 -383.51 153.41 -421.46 948.3 345.15c58.11,21.15 88.17,85.63 67.02,143.72z"/>
    </g>
   </g>
   <g>
   </g>
   <g>
   </g>
   <g>
   </g>
   <g>
   </g>
   <g>
   </g>
   <g>
   </g>
   <g>
   </g>
   <g>
   </g>
   <g>
   </g>
   <g>
   </g>
   <g>
   </g>
   <g>
   </g>
   <g>
   </g>
   <g>
   </g>
   <g>
   </g>
  </g>
 </g>
</svg>
