<?xml version="1.0" encoding="UTF-8"?>
<!DOCTYPE svg PUBLIC "-//W3C//DTD SVG 1.1//EN" "http://www.w3.org/Graphics/SVG/1.1/DTD/svg11.dtd">
<!-- Creator: CorelDRAW 2020 (64-Bit) -->
<svg xmlns="http://www.w3.org/2000/svg" xml:space="preserve" width="5in" height="5in" version="1.1" style="shape-rendering:geometricPrecision; text-rendering:geometricPrecision; image-rendering:optimizeQuality; fill-rule:evenodd; clip-rule:evenodd"
viewBox="0 0 5000 5000"
 xmlns:xlink="http://www.w3.org/1999/xlink"
 xmlns:xodm="http://www.corel.com/coreldraw/odm/2003"
 data-name="Layer 1">
 <defs>
  <style type="text/css">
   <![CDATA[
    .fil1 {fill:url(#id0);fill-rule:nonzero}
    .fil3 {fill:url(#id1);fill-rule:nonzero}
    .fil2 {fill:url(#id2);fill-rule:nonzero}
    .fil0 {fill:url(#id3);fill-rule:nonzero}
   ]]>
  </style>
  <linearGradient id="id0" gradientUnits="userSpaceOnUse" x1="2400.94" y1="1107.87" x2="2400.94" y2="3810.95">
   <stop offset="0" style="stop-opacity:1; stop-color:#721482"/>
   <stop offset="1" style="stop-opacity:1; stop-color:#E650FF"/>
  </linearGradient>
  <linearGradient id="id1" gradientUnits="userSpaceOnUse" xlink:href="#id0" x1="3128.18" y1="3313.5" x2="3128.18" y2="3493.7">
  </linearGradient>
  <linearGradient id="id2" gradientUnits="userSpaceOnUse" xlink:href="#id0" x1="3490.69" y1="3313.5" x2="3490.69" y2="3493.7">
  </linearGradient>
  <linearGradient id="id3" gradientUnits="userSpaceOnUse" xlink:href="#id0" x1="2478.33" y1="1490.11" x2="2478.33" y2="2571.29">
  </linearGradient>
 </defs>
 <g id="Layer_x0020_1">
  <metadata id="CorelCorpID_0Corel-Layer"/>
  <g id="_2450464434800">
   <path class="fil0" d="M2545.31 2318.81l-271.88 0c-50.04,0 -90.62,40.58 -90.62,90.63 0,50.04 40.58,90.62 90.63,90.62l135.93 0c0,50.04 40.59,90.62 90.63,90.62 50.04,0 90.63,-40.58 90.63,-90.62l0 -4.08c130.06,-22.78 224.99,-135.76 224.99,-267.8 0,-149.53 -120.79,-271.04 -270.31,-271.87l-90.61 0c-50.04,0 -90.62,-40.58 -90.62,-90.63 0,-50.04 40.58,-90.63 90.63,-90.63l271.87 0c50.04,0 90.62,-40.58 90.62,-90.63 0,-50.04 -40.58,-90.62 -90.62,-90.62l-135.94 0c0,-50.04 -40.58,-90.63 -90.63,-90.63 -50.04,0 -90.62,40.58 -90.62,90.63l0 4.08c-130.06,22.78 -224.99,135.76 -224.99,267.8 0,149.53 120.78,271.04 270.31,271.87l90.61 -0c50.04,0 90.62,40.58 90.62,90.63 0,50.04 -40.58,90.63 -90.62,90.63z"/>
   <path class="fil1" d="M3678.13 1956.31l-276.41 0c-46.48,-462.91 -436.37,-815.74 -901.72,-815.74 -465.35,0 -855.24,352.83 -901.71,815.75l-276.41 -0.01c-150.12,0 -271.87,121.75 -271.87,271.87l-0 1359.37c0,150.13 121.75,271.87 271.88,271.87l2356.25 0c150.13,-0 271.87,-121.75 271.87,-271.88l0 -1359.37c0,-150.13 -121.75,-271.87 -271.87,-271.87zm-394.67 543.75c44.5,6.51 77.49,44.69 77.49,89.67 0,0.31 0,0.64 0,0.95 -0,50.05 -40.59,90.63 -90.63,90.63l-123.7 0c52.94,-54.36 99,-115.44 136.83,-181.3l0.02 0.04zm-783.45 -1178.12c400.34,-0 725,324.66 725,725 0,0.48 0,1.19 0,1.71 0,111.16 -25.98,221.1 -75.65,320.46 -65.74,132.1 -170.27,241.15 -299.5,312.22l-699.67 -0.01c-129.26,-71.07 -233.8,-180.11 -299.47,-312.17 -49.74,-99.39 -75.72,-209.33 -75.72,-320.5 0,-0.52 0,-1.22 0,-1.75 0,-400.3 324.66,-724.96 725,-724.96l0 0zm-783.45 1178.12c37.48,65.76 83.32,126.84 135.94,181.24l-122.8 0.01c-50.04,-0 -90.62,-40.59 -90.62,-90.63 -0,-0.17 -0,-0.36 -0,-0.53 0,-23.67 9.28,-46.44 25.83,-63.36 13.9,-14.19 32.03,-23.59 51.65,-26.72l-0 -0zm2052.2 1087.5c-0,50.04 -40.59,90.62 -90.63,90.62l-2356.25 0c-50.04,-0 -90.62,-40.59 -90.62,-90.63l-0 -1359.37c0,-50.04 40.59,-90.63 90.63,-90.63l276.4 0c6.08,66.8 19.82,132.99 40.8,196.69 -108.61,38.32 -181.26,141.08 -181.26,256.29 0,0.04 0,0.1 0,0.13 0,150.13 121.75,271.89 271.87,271.89l1540.62 0c0.14,0 0.28,0 0.41,0 150.13,0 271.87,-121.75 271.87,-271.88 0,-115.34 -72.86,-218.2 -181.66,-256.47 20.97,-63.66 34.71,-129.85 40.76,-196.68l276.43 0.03c50.04,0 90.62,40.58 90.62,90.63l0 1359.37z"/>
   <circle class="fil2" cx="3496.88" cy="3406.31" r="90.62"/>
   <circle class="fil3" cx="3134.37" cy="3406.31" r="90.62"/>
  </g>
  <g id="_2450464434752">
  </g>
  <g id="_2450464436144">
  </g>
  <g id="_2450464435280">
  </g>
  <g id="_2450464433936">
  </g>
  <g id="_2450464434272">
  </g>
  <g id="_2450464435040">
  </g>
  <g id="_2450464431584">
  </g>
  <g id="_2450464430576">
  </g>
  <g id="_2450464433024">
  </g>
  <g id="_2450464432592">
  </g>
  <g id="_2450464430480">
  </g>
  <g id="_2450464431152">
  </g>
  <g id="_2450464430768">
  </g>
  <g id="_2450464432880">
  </g>
  <g id="_2450464432400">
  </g>
 </g>
</svg>
