<?xml version="1.0" encoding="UTF-8"?>
<!DOCTYPE svg PUBLIC "-//W3C//DTD SVG 1.1//EN" "http://www.w3.org/Graphics/SVG/1.1/DTD/svg11.dtd">
<!-- Creator: CorelDRAW 2020 (64-Bit) -->
<svg xmlns="http://www.w3.org/2000/svg" xml:space="preserve" width="4.02437in" height="3.23709in" version="1.1" style="shape-rendering:geometricPrecision; text-rendering:geometricPrecision; image-rendering:optimizeQuality; fill-rule:evenodd; clip-rule:evenodd"
viewBox="0 0 4024.38 3237.09"
 xmlns:xlink="http://www.w3.org/1999/xlink"
 xmlns:xodm="http://www.corel.com/coreldraw/odm/2003">
 <defs>
  <style type="text/css">
   <![CDATA[
    .fil0 {fill:url(#id0);fill-rule:nonzero}
   ]]>
  </style>
  <linearGradient id="id0" gradientUnits="userSpaceOnUse" x1="1874.71" y1="-38.92" x2="1874.71" y2="3179.37">
   <stop offset="0" style="stop-opacity:1; stop-color:#721482"/>
   <stop offset="1" style="stop-opacity:1; stop-color:#E650FF"/>
  </linearGradient>
 </defs>
 <g id="Layer_x0020_1">
  <metadata id="CorelCorpID_0Corel-Layer"/>
  <g id="_2450784824304">
   <g>
    <path class="fil0" d="M3992.2 1349.47l-729.41 -1087.83c-56.59,-88.03 -176.06,-113.18 -264.09,-50.3l-232.66 150.91c-88.03,56.59 -106.9,176.07 -50.3,264.1l62.88 94.32c-194.93,12.57 -383.57,-69.17 -383.57,-75.46 -182.35,-75.46 -377.28,-31.44 -521.91,25.15 -100.61,-81.74 -264.09,-163.49 -408.72,-213.79 56.59,-88.03 37.73,-201.22 -44.02,-264.1l-226.37 -157.2c-81.74,-62.88 -207.5,-37.72 -270.39,44.02l-886.62 1213.59c-62.88,88.03 -44.02,207.5 44.02,270.39l220.08 163.49c31.44,25.15 75.46,37.73 113.18,37.73 56.59,0 100.61,-25.15 138.34,-62.88 75.46,75.46 150.91,144.63 207.5,188.64l-138.34 201.22c-81.74,125.76 -50.3,301.83 81.75,383.57 69.17,44.02 150.91,56.59 238.95,31.44 6.29,81.74 50.3,157.2 119.47,207.5 44.02,31.44 100.61,44.02 150.91,44.02 31.44,0 56.59,-6.29 81.74,-12.58 6.29,81.74 50.3,157.2 119.47,207.5 44.02,31.44 100.61,44.02 150.91,44.02 25.15,0 56.59,-6.29 81.74,-12.58 6.29,75.46 50.3,150.91 119.47,201.22l12.58 6.29c125.76,81.74 295.54,50.3 377.28,-75.46 31.44,-50.3 56.59,-69.17 75.45,-138.33l37.73 25.15c106.9,75.46 257.81,50.3 333.27,-62.88 25.15,-37.73 44.02,-88.03 44.02,-138.34 88.03,12.57 182.35,-25.15 232.66,-100.61 37.72,-50.3 50.3,-119.47 37.72,-194.93 75.46,-12.57 132.05,-50.3 169.78,-100.61 31.44,-44.02 44.02,-88.03 44.02,-138.34 88.03,12.57 182.35,-25.15 232.65,-100.61 56.59,-88.03 56.59,-201.22 -12.57,-289.25 44.02,-62.88 69.17,-119.47 81.74,-169.78l6.29 12.58c56.59,88.03 176.07,113.18 264.1,50.3l238.95 -157.2c88.03,-56.59 106.89,-176.07 50.3,-264.1l0 -0.01zm-3615.62 276.68l-220.08 -163.49c-31.44,-25.15 -37.73,-62.88 -12.57,-94.32l886.61 -1219.88c25.15,-31.44 62.88,-37.73 94.32,-12.57l220.08 163.49c31.44,18.87 37.73,62.88 12.57,94.32l-886.61 1213.59c-25.15,31.44 -69.17,37.73 -94.32,18.87zm389.86 748.27c-69.17,-44.02 -88.03,-138.34 -44.02,-207.5l295.54 -427.59c44.02,-69.17 138.34,-88.03 213.79,-44.02 69.17,50.3 88.03,144.62 44.02,207.5l-295.54 427.59c-44.02,69.17 -144.63,88.03 -213.8,44.02zm358.42 238.95c-69.17,-44.02 -88.03,-138.33 -44.02,-207.5l194.93 -282.96c44.02,-69.17 138.34,-88.03 213.79,-44.02 69.17,44.02 88.03,138.33 44.02,207.5l-194.93 282.96c-44.02,69.17 -144.62,88.03 -213.79,44.02zm364.7 238.95c-69.17,-44.02 -88.03,-138.33 -44.02,-207.5l94.32 -125.76c113.18,-169.78 364.7,0 257.81,163.49 -62.88,81.74 -44.02,62.88 -88.03,125.76 -56.59,62.88 -157.2,88.03 -220.08,44.02l-0 -0zm603.65 132.05l-44.02 62.88c-44.02,62.88 -138.34,81.74 -201.22,44.02l-12.58 -6.29c-69.17,-44.02 -88.03,-132.05 -44.02,-201.22 6.29,-6.29 62.88,-88.03 56.59,-81.74 132.05,-132.05 345.84,37.72 245.23,182.35l0 0zm1169.58 -886.62c-37.73,50.3 -106.9,62.88 -157.2,31.44l-459.02 -320.69c-6.29,-6.29 -18.87,-6.29 -31.44,-12.57 -18.87,0 -44.02,6.29 -56.59,25.15 -18.87,25.15 -12.57,69.17 12.57,88.03l383.57 270.39c125.76,88.03 -6.29,276.67 -132.05,188.64l-345.84 -245.23c-31.44,-18.87 -69.17,-12.58 -88.03,12.57 -18.87,31.44 -12.57,69.17 12.57,88.03l345.84 245.23c50.3,37.73 62.88,106.9 31.44,163.49 -37.73,50.3 -106.9,69.17 -163.49,31.44 -37.73,-25.15 -326.98,-220.08 -308.11,-207.5l-31.44 -18.87c-31.44,-18.86 -69.17,-12.57 -88.03,18.87 -12.58,18.87 -12.58,50.3 0,69.17 12.57,18.87 25.15,18.87 56.59,44.02 176.07,132.05 276.67,144.62 276.67,245.23 0,88.03 -100.61,150.91 -182.35,94.32l-113.19 -81.74c-37.73,-125.76 -169.78,-207.5 -295.54,-194.93 12.57,-100.61 -31.44,-207.5 -119.47,-264.1 -75.46,-50.3 -138.34,-44.02 -150.92,-44.02 56.59,-119.47 12.58,-270.39 -100.61,-345.84 -44.02,-31.44 -100.61,-44.02 -157.2,-44.02 44.02,-119.47 6.29,-257.81 -106.89,-333.27 -125.76,-81.74 -301.83,-50.3 -383.57,75.46l-81.74 119.47c-56.59,-44.02 -132.05,-113.19 -201.22,-188.64l754.56 -1031.24c138.34,50.3 270.39,113.18 358.42,169.78 -44.02,25.15 -75.46,44.02 -88.03,56.59 -157.2,81.74 -207.5,194.93 -226.37,276.67 -25.15,157.2 113.18,295.54 333.26,276.67 301.83,-25.15 295.54,-163.49 446.45,-220.08 18.87,-6.29 44.02,0 56.59,12.58 1043.81,848.88 962.07,786 968.36,786 56.59,37.73 69.17,113.18 31.44,163.49l-0 -0zm56.59 -565.92c6.29,31.44 25.15,132.05 -62.88,264.1l-905.48 -754.56c-50.3,-37.73 -119.47,-50.3 -176.06,-31.44 -213.8,75.45 -138.34,188.64 -415.01,213.79 -100.61,6.29 -213.8,-31.44 -201.22,-132.05 12.57,-81.74 69.17,-144.63 163.49,-194.93 0,0 6.29,-6.29 6.29,-6.29 6.29,0 339.55,-245.23 609.94,-132.05 12.57,6.29 264.1,119.47 515.62,75.46 50.3,75.46 -169.78,-251.52 465.32,697.97l0 0zm553.35 -25.15l-238.95 157.2c-31.44,18.86 -69.17,12.57 -88.03,-18.87l-723.12 -1087.83c-18.87,-31.44 -12.58,-69.17 18.86,-88.03l238.95 -157.2c31.44,-18.86 69.17,-12.57 88.03,18.87l729.41 1087.83c12.57,31.44 0,69.17 -25.15,88.03l0 0z"/>
   </g>
  </g>
 </g>
</svg>
