<?xml version="1.0" encoding="UTF-8"?>
<!DOCTYPE svg PUBLIC "-//W3C//DTD SVG 1.1//EN" "http://www.w3.org/Graphics/SVG/1.1/DTD/svg11.dtd">
<!-- Creator: CorelDRAW 2020 (64-Bit) -->
<svg xmlns="http://www.w3.org/2000/svg" xml:space="preserve" width="5in" height="5in" version="1.1" style="shape-rendering:geometricPrecision; text-rendering:geometricPrecision; image-rendering:optimizeQuality; fill-rule:evenodd; clip-rule:evenodd"
viewBox="0 0 5000 5000"
 xmlns:xlink="http://www.w3.org/1999/xlink"
 xmlns:xodm="http://www.corel.com/coreldraw/odm/2003">
 <defs>
  <style type="text/css">
   <![CDATA[
    .fil2 {fill:url(#id0);fill-rule:nonzero}
    .fil1 {fill:url(#id1);fill-rule:nonzero}
    .fil0 {fill:url(#id2);fill-rule:nonzero}
   ]]>
  </style>
  <linearGradient id="id0" gradientUnits="userSpaceOnUse" x1="1098.19" y1="1884.16" x2="1098.19" y2="4043.35">
   <stop offset="0" style="stop-opacity:1; stop-color:#721482"/>
   <stop offset="1" style="stop-opacity:1; stop-color:#E650FF"/>
  </linearGradient>
  <linearGradient id="id1" gradientUnits="userSpaceOnUse" xlink:href="#id0" x1="2632.43" y1="886.21" x2="2632.43" y2="3508.8">
  </linearGradient>
  <linearGradient id="id2" gradientUnits="userSpaceOnUse" xlink:href="#id0" x1="2783.1" y1="3708.93" x2="2783.1" y2="4061.31">
  </linearGradient>
 </defs>
 <g id="Layer_x0020_1">
  <metadata id="CorelCorpID_0Corel-Layer"/>
  <g id="_2450561831248">
   <g>
    <path class="fil0" d="M3605.97 3881.81l-450.2 0c-16.25,0 -29.52,-13.26 -29.52,-29.52l0 -109.58c0,-16.24 -13.28,-29.52 -29.52,-29.52l-629.95 0c-16.25,0 -29.53,13.28 -29.53,29.52l0 109.58c0,16.26 -13.28,29.52 -29.53,29.52l-338.44 0c-16.25,0 -29.53,13.28 -29.53,29.52l0 126.77c0,16.24 13.28,29.52 29.53,29.52l1536.67 0c16.24,0 29.52,-13.28 29.52,-29.52l0 -126.77c0.02,-16.21 -13.26,-29.52 -29.5,-29.52z"/>
    <g>
     <path class="fil1" d="M4362.35 917.93l-3212.5 0c-111.77,0 -202.7,90.94 -202.7,202.73 0,0 0,386.55 0,528.76 0,69.91 -5.19,79.79 41.71,79.79 24.91,0 52.49,0 80.42,0 39.35,0 31.28,-9.89 31.28,-81.09 0,-141.89 0,-527.46 0,-527.46 0,-26.72 22.58,-49.3 49.29,-49.3l3212.5 0c26.7,0 49.28,22.58 49.28,49.3l0 1979.15 -2290.31 -0c0,0 -80.72,-0.15 -80.72,104.23 0,61.89 0,185.66 0,247.56 0,104.23 83.33,104.23 83.33,104.23l2238.41 0c111.76,0 202.72,-90.93 202.72,-202.7l0 -2232.48c0,-111.78 -90.94,-202.73 -202.72,-202.73zm-1606.24 2462.87c-50.47,0 -91.37,-40.9 -91.37,-91.33 0,-50.44 40.9,-91.35 91.37,-91.35 50.42,0 91.32,40.92 91.32,91.35 0,50.44 -40.91,91.33 -91.32,91.33z"/>
     <path class="fil2" d="M1727.91 1910.28l-1162.15 0c-72.16,0 -130.83,58.68 -130.83,130.83l0 1910.12c0,72.15 58.67,130.84 130.82,130.84l1162.15 0c72.11,0 130.82,-58.7 130.82,-130.84l0 -1910.13c0,-72.15 -58.71,-130.83 -130.82,-130.83zm-724.43 133.44l286.7 0c13.68,0 24.79,11.08 24.79,24.8 0,13.69 -11.1,24.78 -24.79,24.78l-286.7 0c-13.7,0 -24.78,-11.09 -24.78,-24.78 0,-13.72 11.08,-24.8 24.78,-24.8zm141.61 1946.46c-37.4,0 -67.71,-30.31 -67.71,-67.71 0,-37.4 30.31,-67.71 67.71,-67.71 37.4,0 67.71,30.31 67.71,67.71 0,37.4 -30.31,67.71 -67.71,67.71zm601.23 -199c0,17.46 -13.98,31.74 -31.04,31.74l-1136.86 0c-17.07,0 -31.04,-14.28 -31.04,-31.74l0 -1587.24c0,-17.46 13.98,-31.73 31.04,-31.73l1136.86 0c17.07,0 31.04,14.28 31.04,31.73l-0 1587.24z"/>
    </g>
   </g>
   <g>
   </g>
   <g>
   </g>
   <g>
   </g>
   <g>
   </g>
   <g>
   </g>
   <g>
   </g>
   <g>
   </g>
   <g>
   </g>
   <g>
   </g>
   <g>
   </g>
   <g>
   </g>
   <g>
   </g>
   <g>
   </g>
   <g>
   </g>
   <g>
   </g>
  </g>
 </g>
</svg>
