<?xml version="1.0" encoding="UTF-8"?>
<!DOCTYPE svg PUBLIC "-//W3C//DTD SVG 1.1//EN" "http://www.w3.org/Graphics/SVG/1.1/DTD/svg11.dtd">
<!-- Creator: CorelDRAW 2020 (64-Bit) -->
<svg xmlns="http://www.w3.org/2000/svg" xml:space="preserve" width="3.43333in" height="4.12in" version="1.1" style="shape-rendering:geometricPrecision; text-rendering:geometricPrecision; image-rendering:optimizeQuality; fill-rule:evenodd; clip-rule:evenodd"
viewBox="0 0 3433.33 4120"
 xmlns:xlink="http://www.w3.org/1999/xlink"
 xmlns:xodm="http://www.corel.com/coreldraw/odm/2003">
 <defs>
  <style type="text/css">
   <![CDATA[
    .fil8 {fill:url(#id0);fill-rule:nonzero}
    .fil6 {fill:url(#id1);fill-rule:nonzero}
    .fil4 {fill:url(#id2);fill-rule:nonzero}
    .fil2 {fill:url(#id3);fill-rule:nonzero}
    .fil3 {fill:url(#id4);fill-rule:nonzero}
    .fil1 {fill:url(#id5);fill-rule:nonzero}
    .fil0 {fill:url(#id6);fill-rule:nonzero}
    .fil5 {fill:url(#id7);fill-rule:nonzero}
    .fil7 {fill:url(#id8);fill-rule:nonzero}
   ]]>
  </style>
  <linearGradient id="id0" gradientUnits="userSpaceOnUse" x1="1280.81" y1="2054.74" x2="1280.81" y2="3267.94">
   <stop offset="0" style="stop-opacity:1; stop-color:#721482"/>
   <stop offset="1" style="stop-opacity:1; stop-color:#E650FF"/>
  </linearGradient>
  <linearGradient id="id1" gradientUnits="userSpaceOnUse" xlink:href="#id0" x1="1320.27" y1="300.91" x2="1320.27" y2="1845.22">
  </linearGradient>
  <linearGradient id="id2" gradientUnits="userSpaceOnUse" xlink:href="#id0" x1="2643.24" y1="2830.44" x2="2643.24" y2="3001.11">
  </linearGradient>
  <linearGradient id="id3" gradientUnits="objectBoundingBox" xlink:href="#id0" x1="46.5839%" y1="0%" x2="46.5839%" y2="98.2174%">
  </linearGradient>
  <linearGradient id="id4" gradientUnits="userSpaceOnUse" xlink:href="#id0" x1="2643.24" y1="2315.44" x2="2643.24" y2="2486.11">
  </linearGradient>
  <linearGradient id="id5" gradientUnits="userSpaceOnUse" xlink:href="#id0" x1="2643.24" y1="1800.44" x2="2643.24" y2="1971.11">
  </linearGradient>
  <linearGradient id="id6" gradientUnits="userSpaceOnUse" xlink:href="#id0" x1="1599.38" y1="-49.54" x2="1599.38" y2="4046.53">
  </linearGradient>
  <linearGradient id="id7" gradientUnits="userSpaceOnUse" xlink:href="#id0" x1="1634.57" y1="3431.27" x2="1634.57" y2="3601.94">
  </linearGradient>
  <linearGradient id="id8" gradientUnits="userSpaceOnUse" xlink:href="#id0" x1="1103.98" y1="303.37" x2="1103.98" y2="1644.14">
  </linearGradient>
 </defs>
 <g id="Layer_x0020_1">
  <metadata id="CorelCorpID_0Corel-Layer"/>
  <g id="_2450793691024">
   <path class="fil0" d="M3004.17 4120l-2575 0c-236.56,0 -429.17,-192.61 -429.17,-429.17l0 -3261.67c0,-236.56 192.61,-429.17 429.17,-429.17l2575 0c236.56,0 429.17,192.61 429.17,429.17l0 3261.67c0,236.56 -192.61,429.17 -429.17,429.17zm-2575 -3948.33c-141.97,0 -257.5,115.53 -257.5,257.5l0 3261.67c0,141.97 115.53,257.5 257.5,257.5l2575 0c141.97,0 257.5,-115.53 257.5,-257.5l0 -3261.67c0,-141.97 -115.53,-257.5 -257.5,-257.5l-2575 0z"/>
   <path class="fil1" d="M2832.5 1974.17l-343.33 0c-47.38,0 -85.83,-38.45 -85.83,-85.83 0,-47.38 38.45,-85.83 85.83,-85.83l343.33 0c47.38,0 85.83,38.45 85.83,85.83 0,47.38 -38.45,85.83 -85.83,85.83z"/>
   <path class="fil2" d="M2832.5 1459.17l-343.33 0c-47.38,0 -85.83,-38.45 -85.83,-85.83 0,-47.38 38.45,-85.83 85.83,-85.83l343.33 -0c47.38,0 85.83,38.46 85.83,85.83 0,47.38 -38.45,85.83 -85.83,85.83l0 0z"/>
   <path class="fil3" d="M2832.5 2489.17l-343.33 0c-47.38,0 -85.83,-38.46 -85.83,-85.83 0,-47.38 38.45,-85.83 85.83,-85.83l343.33 0c47.38,0 85.83,38.45 85.83,85.83 0,47.38 -38.45,85.83 -85.83,85.83z"/>
   <path class="fil4" d="M2832.5 3004.17l-343.33 0c-47.38,0 -85.83,-38.45 -85.83,-85.83 0,-47.38 38.45,-85.83 85.83,-85.83l343.33 0c47.38,0 85.83,38.45 85.83,85.83 0,47.38 -38.45,85.83 -85.83,85.83l0 0z"/>
   <path class="fil5" d="M2832.5 3605l-2231.67 0c-47.38,0 -85.83,-38.45 -85.83,-85.83 0,-47.38 38.45,-85.83 85.83,-85.83l2231.67 0c47.38,0 85.83,38.46 85.83,85.83 0,47.38 -38.45,85.83 -85.83,85.83z"/>
   <path class="fil6" d="M1373.33 1872.92c-428.25,0 -776.67,-348.41 -776.67,-776.67 0,-428.26 348.41,-776.67 776.67,-776.67 428.26,0 776.67,348.41 776.67,776.67 0,428.25 -348.41,776.67 -776.67,776.67zm0 -1398c-342.66,0 -621.33,278.67 -621.33,621.33 0,342.67 278.67,621.33 621.33,621.33 342.67,0 621.33,-278.67 621.33,-621.33 0,-342.67 -278.67,-621.33 -621.33,-621.33z"/>
   <path class="fil7" d="M879.06 1668.19c-19.89,0 -39.77,-7.61 -54.99,-22.68 -30.29,-30.29 -30.29,-79.53 0,-109.82l471.59 -471.59 0 -666.85c0,-42.87 34.8,-77.67 77.67,-77.67 42.87,0 77.67,34.8 77.67,77.67l0 699c0,20.66 -8.24,40.39 -22.68,54.99l-494.27 494.27c-15.22,15.07 -35.1,22.68 -54.98,22.68z"/>
   <path class="fil8" d="M1230.02 2209.06l0 873.85 -293.51 0 0 -400.24c0,-157.76 -206.79,-136.53 -206.79,-26.68l0 426.92c-66.93,0 -134.05,-10.54 -172.22,27.9 -70.15,70.66 -21.26,178.89 72.16,178.89l1414.18 0c137.6,0 141.05,-206.79 0,-206.79l-100.06 0 0 -600.36c0,-37.54 -10.95,-49.17 -31.3,-68.77 -69.63,-67.07 -175.5,-19.51 -175.5,95.45l0 573.67 -293.51 0 0 -873.85c0,-122.81 -84.74,-163.18 -153.45,-126.77 -14.72,7.8 -21.99,14.94 -32.63,27.41 -21.09,24.69 -27.37,54.85 -27.37,99.37z"/>
   <path class="fil2" d="M2832.5 876.67l-343.33 0c-47.38,0 -85.83,-38.45 -85.83,-85.83 0,-47.38 38.45,-85.83 85.83,-85.83l343.33 -0c47.38,0 85.83,38.46 85.83,85.83 0,47.38 -38.45,85.83 -85.83,85.83l0 0z"/>
  </g>
 </g>
</svg>
