<?xml version="1.0" encoding="UTF-8"?>
<!DOCTYPE svg PUBLIC "-//W3C//DTD SVG 1.1//EN" "http://www.w3.org/Graphics/SVG/1.1/DTD/svg11.dtd">
<!-- Creator: CorelDRAW 2020 (64-Bit) -->
<svg xmlns="http://www.w3.org/2000/svg" xml:space="preserve" width="5in" height="5in" version="1.1" style="shape-rendering:geometricPrecision; text-rendering:geometricPrecision; image-rendering:optimizeQuality; fill-rule:evenodd; clip-rule:evenodd"
viewBox="0 0 5000 5000"
 xmlns:xlink="http://www.w3.org/1999/xlink"
 xmlns:xodm="http://www.corel.com/coreldraw/odm/2003">
 <defs>
  <style type="text/css">
   <![CDATA[
    .fil2 {fill:url(#id0);fill-rule:nonzero}
    .fil1 {fill:url(#id1);fill-rule:nonzero}
    .fil0 {fill:url(#id2);fill-rule:nonzero}
   ]]>
  </style>
  <linearGradient id="id0" gradientUnits="userSpaceOnUse" x1="2472.31" y1="1565.95" x2="2472.31" y2="3379.58">
   <stop offset="0" style="stop-opacity:1; stop-color:#721482"/>
   <stop offset="1" style="stop-opacity:1; stop-color:#E650FF"/>
  </linearGradient>
  <linearGradient id="id1" gradientUnits="userSpaceOnUse" xlink:href="#id0" x1="2418.15" y1="1273.18" x2="2418.15" y2="3655.28">
  </linearGradient>
  <linearGradient id="id2" gradientUnits="userSpaceOnUse" xlink:href="#id0" x1="2354.94" y1="325.69" x2="2354.94" y2="4547.52">
  </linearGradient>
 </defs>
 <g id="Layer_x0020_1">
  <metadata id="CorelCorpID_0Corel-Layer"/>
  <path class="fil0" d="M2500 376.76c-302.66,0 -600.96,63.39 -876.65,188.52 -14.52,6.59 -20.48,23.85 -13.38,38.07l129.12 258.67c6.75,13.52 22.94,19.06 36.67,12.92 228.24,-102.07 474.33,-153.16 724.24,-153.16 983,0 1778.22,795.22 1778.22,1778.22 0,356.94 -106.57,700.89 -306.8,996.17l-30.11 44.4 -265.68 -265.85c-6,-6 -14.42,-9.03 -22.86,-8.06 -14.19,1.63 -24.68,13.73 -24.68,27.94l0 794.77c0,15.36 12.14,28.22 27.65,28.22l794.63 -0c25.57,0 37.96,-30.04 19.89,-48.11l-283.05 -283.05 22.56 -30.67c268.67,-365.25 413.46,-802.12 413.46,-1255.79 0,-1171.79 -951.44,-2123.25 -2123.24,-2123.24zm-1951.09 505.63c-24.84,0 -37.5,29.94 -19.89,47.54l283.19 283.19 -22.56 30.67c-268.73,365.31 -412.9,802.56 -412.9,1256.22 0,1171.79 951.46,2123.24 2123.24,2123.24 302.71,0 600.97,-63.89 876.63,-189.08 14.48,-6.58 20.37,-23.87 13.27,-38.03l-129.54 -258.67c-6.63,-13.25 -22.63,-19 -36.17,-12.96 -228.34,101.85 -474.21,153.71 -724.2,153.71 -983,0 -1778.22,-795.21 -1778.22,-1778.21 0,-356.74 105.92,-701.15 305.95,-996.44l30.05 -44.36 266.54 265.89c17.65,17.6 47.59,5.03 47.59,-19.85l0 -794.63c0,-15.66 -12.56,-28.22 -28.22,-28.22l-794.77 0z"/>
  <path class="fil1" d="M2500 1301.99c330.81,0 630.32,134.09 847.12,350.89 216.8,216.8 350.89,516.3 350.89,847.11 0,330.81 -134.09,630.31 -350.89,847.11 -216.8,216.8 -516.3,350.89 -847.12,350.89 -330.81,0 -630.32,-134.09 -847.12,-350.89 -216.8,-216.8 -350.89,-516.3 -350.89,-847.11 0,-330.81 134.09,-630.32 350.89,-847.11 216.8,-216.8 516.3,-350.89 847.12,-350.89zm770.49 427.52c-197.18,-197.18 -469.59,-319.14 -770.49,-319.14 -300.9,0 -573.31,121.96 -770.49,319.14 -197.18,197.18 -319.14,469.59 -319.14,770.49 0,300.9 121.96,573.31 319.14,770.49 197.18,197.18 469.59,319.14 770.49,319.14 300.9,0 573.31,-121.96 770.49,-319.14 197.18,-197.18 319.14,-469.59 319.14,-770.49 0,-300.9 -121.96,-573.31 -319.14,-770.49z"/>
  <path class="fil2" d="M2672.22 2789.5c0,96.1 -76.2,172.3 -172.3,172.3 -96.12,0 -172.16,-76.22 -172.16,-172.3l-0.01 -1.03c-2.05,-88.28 -91.33,-138.42 -168.07,-102.69 -40.99,19.08 -64.04,57.98 -65.04,102.74l-0.01 0.98c0,179.65 119.31,337.11 288.44,388.22l0 117.4c0,91.36 93.34,142.7 171.06,103.93 40.29,-20.1 62.07,-59.39 62.07,-103.93l0 -117.21c169.41,-50.91 289.15,-208.53 289.15,-388.42 0,-223.06 -182.26,-405.85 -405.43,-405.85 -96.12,0 -172.16,-76.21 -172.16,-172.3 0,-96.11 76.05,-172.16 172.16,-172.16 96.09,0 172.3,76.04 172.3,172.16 -1.51,67.47 49.11,118.2 116.58,118.19 19.94,0 39.84,-4.73 57.46,-14.12 39.58,-21.09 60.06,-60.75 59.08,-105.05 0.01,-178.98 -119.74,-336.41 -289.14,-387.29l0 -118.62c0,-67.25 -50.27,-116.56 -116.56,-116.56 -66.29,0 -116.57,49.32 -116.57,116.56l0 118.81c-169.11,51.08 -288.44,208.42 -288.44,388.08 0,223.11 182.15,405.43 405.29,405.43 96.16,0 172.3,76.67 172.3,172.72z"/>
 </g>
</svg>
