<?xml version="1.0" encoding="UTF-8"?>
<!DOCTYPE svg PUBLIC "-//W3C//DTD SVG 1.1//EN" "http://www.w3.org/Graphics/SVG/1.1/DTD/svg11.dtd">
<!-- Creator: CorelDRAW 2020 (64-Bit) -->
<svg xmlns="http://www.w3.org/2000/svg" xml:space="preserve" width="3.31667in" height="2.75012in" version="1.1" style="shape-rendering:geometricPrecision; text-rendering:geometricPrecision; image-rendering:optimizeQuality; fill-rule:evenodd; clip-rule:evenodd"
viewBox="0 0 3316.67 2750.12"
 xmlns:xlink="http://www.w3.org/1999/xlink"
 xmlns:xodm="http://www.corel.com/coreldraw/odm/2003">
 <defs>
  <style type="text/css">
   <![CDATA[
    .fil3 {fill:url(#id0);fill-rule:nonzero}
    .fil1 {fill:url(#id1);fill-rule:nonzero}
    .fil2 {fill:url(#id2);fill-rule:nonzero}
    .fil0 {fill:url(#id3);fill-rule:nonzero}
   ]]>
  </style>
  <linearGradient id="id0" gradientUnits="userSpaceOnUse" x1="2639" y1="525.83" x2="2639" y2="1384.26">
   <stop offset="0" style="stop-opacity:1; stop-color:#721482"/>
   <stop offset="1" style="stop-opacity:1; stop-color:#E650FF"/>
  </linearGradient>
  <linearGradient id="id1" gradientUnits="userSpaceOnUse" xlink:href="#id0" x1="618.68" y1="525.83" x2="618.68" y2="1384.26">
  </linearGradient>
  <linearGradient id="id2" gradientUnits="userSpaceOnUse" xlink:href="#id0" x1="1618.93" y1="-13.87" x2="1618.93" y2="1132.98">
  </linearGradient>
  <linearGradient id="id3" gradientUnits="userSpaceOnUse" xlink:href="#id0" x1="1545.04" y1="1185.98" x2="1545.04" y2="2722.56">
  </linearGradient>
 </defs>
 <g id="Layer_x0020_1">
  <metadata id="CorelCorpID_0Corel-Layer"/>
  <g id="_2450905864320">
   <g>
    <g>
     <path class="fil0" d="M2830.83 1453.78l-324.66 0c-44.19,0 -86.96,6.04 -127.68,17.14 -80.31,-157.88 -244.28,-266.36 -433.22,-266.36l-573.87 0c-188.94,0 -352.91,108.48 -433.22,266.36 -40.71,-11.11 -83.49,-17.14 -127.68,-17.14l-324.66 0c-267.89,0 -485.84,217.95 -485.84,485.84l0 518.99c0,160.74 130.77,291.5 291.5,291.5l2733.66 0c160.74,0 291.5,-130.77 291.5,-291.5l0 -518.99c0,-267.89 -217.95,-485.84 -485.84,-485.84zm-1945.28 236.64l0 865.37 -594.05 0c-53.58,0 -97.17,-43.59 -97.17,-97.17l0 -518.99c0,-160.74 130.77,-291.5 291.5,-291.5l324.66 -0c26.38,0 51.92,3.58 76.24,10.18 -0.7,10.63 -1.18,21.32 -1.18,32.11zm1351.22 865.37l-1156.88 0 0 -865.38c0,-160.74 130.77,-291.5 291.5,-291.5l573.87 0c160.74,0 291.5,130.77 291.5,291.5l0 865.38zm885.56 -97.17c0,53.58 -43.59,97.17 -97.17,97.17l-594.05 0 0 -865.38c0,-10.8 -0.48,-21.49 -1.18,-32.11 24.31,-6.59 49.86,-10.18 76.24,-10.18l324.66 0c160.73,0 291.5,130.77 291.5,291.5l0 519z"/>
    </g>
   </g>
   <g>
    <g>
     <path class="fil1" d="M648.18 536.2c-238.06,0 -431.72,193.67 -431.72,431.72 -0,238.06 193.67,431.72 431.72,431.72 238.05,0 431.72,-193.67 431.72,-431.72 0,-238.05 -193.67,-431.72 -431.72,-431.72zm-0.01 669.11c-130.9,0 -237.39,-106.49 -237.39,-237.39 0,-130.9 106.49,-237.39 237.39,-237.39 130.9,0 237.39,106.49 237.39,237.39 0,130.89 -106.49,237.39 -237.39,237.39z"/>
    </g>
   </g>
   <g>
    <g>
     <path class="fil2" d="M1658.33 0c-318.04,0 -576.78,258.74 -576.78,576.78 0,318.04 258.74,576.78 576.78,576.78 318.04,0 576.78,-258.74 576.78,-576.78 0,-318.03 -258.74,-576.78 -576.78,-576.78zm0 959.22c-210.88,0 -382.44,-171.56 -382.44,-382.44 0,-210.87 171.56,-382.44 382.44,-382.44 210.88,0 382.44,171.56 382.44,382.44 0,210.88 -171.56,382.44 -382.44,382.44z"/>
    </g>
   </g>
   <g>
    <g>
     <path class="fil3" d="M2668.49 536.2c-238.05,0 -431.72,193.67 -431.72,431.72 0.01,238.06 193.68,431.72 431.72,431.72 238.06,0 431.72,-193.67 431.72,-431.72 0,-238.05 -193.67,-431.72 -431.72,-431.72zm0 669.11c-130.89,0 -237.39,-106.49 -237.39,-237.39 0,-130.9 106.5,-237.39 237.39,-237.39 130.9,0 237.39,106.49 237.39,237.39 0,130.89 -106.49,237.39 -237.39,237.39z"/>
    </g>
   </g>
   <g>
   </g>
   <g>
   </g>
   <g>
   </g>
   <g>
   </g>
   <g>
   </g>
   <g>
   </g>
   <g>
   </g>
   <g>
   </g>
   <g>
   </g>
   <g>
   </g>
   <g>
   </g>
   <g>
   </g>
   <g>
   </g>
   <g>
   </g>
   <g>
   </g>
  </g>
 </g>
</svg>
