<?xml version="1.0" encoding="UTF-8"?>
<!DOCTYPE svg PUBLIC "-//W3C//DTD SVG 1.1//EN" "http://www.w3.org/Graphics/SVG/1.1/DTD/svg11.dtd">
<!-- Creator: CorelDRAW 2020 (64-Bit) -->
<svg xmlns="http://www.w3.org/2000/svg" xml:space="preserve" width="5in" height="5in" version="1.1" style="shape-rendering:geometricPrecision; text-rendering:geometricPrecision; image-rendering:optimizeQuality; fill-rule:evenodd; clip-rule:evenodd"
viewBox="0 0 5000 5000"
 xmlns:xlink="http://www.w3.org/1999/xlink"
 xmlns:xodm="http://www.corel.com/coreldraw/odm/2003">
 <defs>
  <style type="text/css">
   <![CDATA[
    .fil0 {fill:url(#id0);fill-rule:nonzero}
   ]]>
  </style>
  <linearGradient id="id0" gradientUnits="objectBoundingBox" x1="46.584%" y1="0%" x2="46.584%" y2="98.2168%">
   <stop offset="0" style="stop-opacity:1; stop-color:#721482"/>
   <stop offset="1" style="stop-opacity:1; stop-color:#E650FF"/>
  </linearGradient>
 </defs>
 <g id="Layer_x0020_1">
  <metadata id="CorelCorpID_0Corel-Layer"/>
  <g id="_2450786183216">
   <g>
    <path class="fil0" d="M3866.43 4046.39l140.31 -152.42c185.67,-270.91 181.4,-591.21 0.66,-863.93 -77.26,-116.58 -182.94,-198.27 -308.06,-258.51 -119.2,-57.39 -251.2,-78.28 -382.52,-64.6 -180.25,18.77 -352.26,101.87 -478.78,231.68 -138.21,141.81 -209.73,325.15 -209.73,522.78 0,289.52 173.46,567.8 438.67,686.65 257.91,115.57 584.26,90.5 799.45,-101.65zm-1006.81 -585c0,-65.67 20.65,-157.28 49.72,-215.8 50.34,-101.34 85.8,-146.35 176.75,-213.89 141.49,-105.09 357.78,-125.63 515.85,-47.11 29.38,14.59 58.52,29.69 85.64,48.24 24.32,16.65 46.52,35.77 68.35,55.51 20.99,18.98 42.74,49.89 59.9,73 159.58,214.88 111.43,534.11 -94.51,701.9 -196.53,160.12 -477.67,168.15 -671.58,-0.94 -74.69,-65.13 -96.32,-96.39 -140.4,-185.12 -29.07,-58.52 -49.72,-150.12 -49.72,-215.8z"/>
   </g>
   <g>
    <path class="fil0" d="M855.53 2815.46l0 1291.87c0,56.41 55.49,111.9 111.89,111.9l1291.87 0c56.41,0 111.9,-55.49 111.9,-111.9l0 -1291.87c0,-56.41 -55.49,-111.9 -111.9,-111.9l-1291.87 0c-56.41,0 -111.89,55.49 -111.89,111.9zm231.3 119.41l1053.05 0 0 1053.06 -1053.05 0 0 -1053.06z"/>
   </g>
   <g>
    <path class="fil0" d="M2628.31 892.68l0 1291.87c0,56.41 55.49,111.9 111.89,111.9l1291.87 0c56.41,0 111.9,-55.49 111.9,-111.9l0 -1291.87c0,-56.41 -55.49,-111.9 -111.9,-111.9l-1291.87 0c-56.41,0 -111.89,55.49 -111.89,111.9zm231.3 119.41l1053.05 0 0 1053.06 -1053.05 0 0 -1053.06z"/>
   </g>
   <g>
    <path class="fil0" d="M855.53 892.68l0 1291.87c0,56.41 55.49,111.9 111.89,111.9l1291.87 0c56.41,0 111.9,-55.49 111.9,-111.9l0 -1291.87c0,-56.41 -55.49,-111.9 -111.9,-111.9l-1291.87 0c-56.41,0 -111.89,55.49 -111.89,111.9zm231.3 119.41l1053.05 0 0 1053.06 -1053.05 0 0 -1053.06z"/>
   </g>
  </g>
 </g>
</svg>
