<?xml version="1.0" encoding="UTF-8"?>
<!DOCTYPE svg PUBLIC "-//W3C//DTD SVG 1.1//EN" "http://www.w3.org/Graphics/SVG/1.1/DTD/svg11.dtd">
<!-- Creator: CorelDRAW 2020 (64-Bit) -->
<svg xmlns="http://www.w3.org/2000/svg" xml:space="preserve" width="5in" height="5in" version="1.1" style="shape-rendering:geometricPrecision; text-rendering:geometricPrecision; image-rendering:optimizeQuality; fill-rule:evenodd; clip-rule:evenodd"
viewBox="0 0 5000 5000"
 xmlns:xlink="http://www.w3.org/1999/xlink"
 xmlns:xodm="http://www.corel.com/coreldraw/odm/2003">
 <defs>
  <style type="text/css">
   <![CDATA[
    .fil0 {fill:url(#id0);fill-rule:nonzero}
   ]]>
  </style>
  <linearGradient id="id0" gradientUnits="userSpaceOnUse" x1="2377.5" y1="1067.85" x2="2377.5" y2="3848.65">
   <stop offset="0" style="stop-opacity:1; stop-color:#721482"/>
   <stop offset="1" style="stop-opacity:1; stop-color:#E650FF"/>
  </linearGradient>
 </defs>
 <g id="Layer_x0020_1">
  <metadata id="CorelCorpID_0Corel-Layer"/>
  <path class="fil0" d="M4268.51 2046.43l-920.46 -920.46c-32.65,-32.65 -85.55,-32.62 -118.19,0.03 -15.67,15.67 -24.47,36.91 -24.47,59.06l0 442.4 -968.37 -0c-46.18,0 -83.58,37.41 -83.58,83.58 0,46.18 37.41,83.58 83.58,83.58l1051.96 0c46.17,0 83.57,-37.41 83.57,-83.58l0 -324.24 718.72 718.72 -718.72 718.71 0 -324.23c0,-46.18 -37.41,-83.58 -83.58,-83.58l-1494.35 0 0 -442.4c0,-46.17 -37.43,-83.56 -83.59,-83.55 -22.15,0 -43.41,8.8 -59.07,24.46l-920.46 920.46c-32.64,32.64 -32.64,85.52 0,118.16l920.46 920.46c15.69,15.69 36.96,24.47 59.14,24.5 10.95,0.01 21.81,-2.13 31.93,-6.33 31.23,-12.97 51.59,-43.43 51.59,-77.25l0 -442.4 968.37 0c46.18,0 83.58,-37.41 83.58,-83.58 0,-46.18 -37.41,-83.58 -83.58,-83.58l-1051.95 0c-46.17,0 -83.57,37.41 -83.57,83.58l0 324.23 -718.72 -718.72 718.72 -718.71 0 324.23c0,46.17 37.4,83.58 83.57,83.58l1494.35 0 0 442.4c0,46.17 37.43,83.56 83.59,83.55 22.15,-0 43.41,-8.8 59.07,-24.46l920.46 -920.46c32.64,-32.64 32.63,-85.53 -0,-118.17z"/>
 </g>
</svg>
