<?xml version="1.0" encoding="UTF-8"?>
<!DOCTYPE svg PUBLIC "-//W3C//DTD SVG 1.1//EN" "http://www.w3.org/Graphics/SVG/1.1/DTD/svg11.dtd">
<!-- Creator: CorelDRAW 2020 (64-Bit) -->
<svg xmlns="http://www.w3.org/2000/svg" xml:space="preserve" width="5in" height="5in" version="1.1" style="shape-rendering:geometricPrecision; text-rendering:geometricPrecision; image-rendering:optimizeQuality; fill-rule:evenodd; clip-rule:evenodd"
viewBox="0 0 5000 5000"
 xmlns:xlink="http://www.w3.org/1999/xlink"
 xmlns:xodm="http://www.corel.com/coreldraw/odm/2003">
 <defs>
  <style type="text/css">
   <![CDATA[
    .fil0 {fill:url(#id0);fill-rule:nonzero}
   ]]>
  </style>
  <linearGradient id="id0" gradientUnits="userSpaceOnUse" x1="2376.83" y1="653.89" x2="2376.83" y2="4238.47">
   <stop offset="0" style="stop-opacity:1; stop-color:#721482"/>
   <stop offset="1" style="stop-opacity:1; stop-color:#E650FF"/>
  </linearGradient>
 </defs>
 <g id="Layer_x0020_1">
  <metadata id="CorelCorpID_0Corel-Layer"/>
  <g id="_2450705050800">
   <g id="surface1">
    <path class="fil0" d="M4197.14 957.47l-462.69 0c1.68,-51.25 2.61,-102.8 2.61,-154.59 0,-58.35 -47.31,-105.63 -105.63,-105.63l-2262.87 0c-58.32,0 -105.63,47.28 -105.63,105.63 0,51.8 0.94,103.35 2.61,154.59l-462.69 0c-58.35,0 -105.63,47.29 -105.63,105.63 0,473.31 123.7,919.85 348.31,1257.4 222.02,333.7 517.76,525.11 837.24,543.73 72.43,78.81 148.98,143.07 228.73,192.09l0 469.48 -177.21 0c-214.23,0 -388.5,174.3 -388.5,388.5l0 177.2 -7.51 0c-58.34,0 -105.63,47.32 -105.63,105.63 0,58.34 47.29,105.63 105.63,105.63l1923.43 0c58.35,0 105.63,-47.29 105.63,-105.63 0,-58.31 -47.29,-105.63 -105.63,-105.63l-7.51 0 0 -177.2c0,-214.2 -174.26,-388.5 -388.5,-388.5l-177.2 0 0 -469.48c79.74,-48.99 156.33,-113.28 228.76,-192.09 319.45,-18.62 615.19,-210.03 837.24,-543.73 224.61,-337.55 348.28,-784.09 348.28,-1257.4 0,-58.34 -47.29,-105.63 -105.63,-105.63zm-2975.72 1246.01c-185.26,-278.41 -294.11,-642.56 -310.7,-1034.74l366.63 0c38.1,482.11 151.27,927.74 328.15,1281.46 28.17,56.34 57.63,109.57 88.19,159.69 -175.7,-66.35 -338.3,-205.04 -472.26,-406.41zm2021.52 1710.81l0 177.24 -1485.88 0 0 -177.24c0,-97.71 79.5,-177.24 177.24,-177.24l1131.41 0c97.74,0 177.24,79.53 177.24,177.24zm-565.7 -388.5l-354.47 0 0 -377.69c58.07,15.3 117.24,23.24 177.24,23.24 60,0 119.17,-7.95 177.24,-23.24l0 377.69zm65.41 -629c-4.76,1.95 -9.32,4.32 -13.7,6.93 -74.66,37.14 -151.38,56.36 -228.95,56.36 -77.54,0 -154.24,-19.22 -228.87,-56.31 -4.43,-2.67 -9.02,-5.04 -13.84,-7.04 -82.82,-43.79 -162.96,-109.92 -238.74,-196.82 -3.99,-5.7 -8.47,-10.95 -13.45,-15.74 -75.23,-89.32 -146.01,-199.19 -210.66,-328.47 -194.13,-388.22 -306.25,-898.69 -319.01,-1447.2l2049.13 0c-12.79,548.51 -124.91,1059.01 -319.01,1447.2 -64.65,129.29 -135.43,239.15 -210.63,328.47 -5,4.79 -9.54,10.07 -13.5,15.76 -75.79,86.93 -155.94,153.03 -238.77,196.85zm1035.93 -693.31c-133.96,201.36 -296.56,340.06 -472.26,406.41 30.56,-50.12 60.02,-103.35 88.19,-159.69 176.88,-353.73 290.02,-799.36 328.15,-1281.46l366.63 0c-16.59,392.18 -125.44,756.33 -310.7,1034.74zm0 0z"/>
   </g>
  </g>
 </g>
</svg>
