<?xml version="1.0" encoding="utf-8"?>
<!-- Generator: Adobe Illustrator 26.0.3, SVG Export Plug-In . SVG Version: 6.00 Build 0)  -->
<svg version="1.1" id="Layer_1" xmlns="http://www.w3.org/2000/svg" xmlns:xlink="http://www.w3.org/1999/xlink" x="0px" y="0px"
	 viewBox="0 0 595.3 72.6" style="enable-background:new 0 0 595.3 72.6;" xml:space="preserve">
<style type="text/css">
	.st0{fill:#353535;}
	.st1{fill:#FF0000;}
</style>
<g>
	<path class="st0" d="M347.1,36c0,10-0.1,20,0.1,30c0,2.9-1,3.8-3.9,3.8c-9.1,0-9.1,0.1-9.1-8.9c0-4.8-0.1-9.7,0-14.5
		c0.1-2.4-0.7-3.5-3.3-3.4c-9.3,0.1-18.6,0.1-27.9,0c-2.2,0-3.1,0.8-3.1,3c0.1,6.8-0.1,13.5,0.1,20.3c0,2.6-0.9,3.7-3.6,3.5
		c-2.1-0.1-4.3-0.1-6.4,0c-2.3,0.1-3.1-0.9-3-3.1c0.1-4.2,0-8.5,0-12.7c0-16.1,0.1-32.1-0.1-48.2c0-3,0.8-4.4,4-4
		c1.7,0.2,3.5,0.2,5.2,0c2.9-0.3,4,0.8,3.9,3.8c-0.2,7.3-0.1,14.5,0,21.8c0,3.9,0.2,4.1,4.2,4.1c8.7,0,17.3,0,26,0c3.7,0,4-0.3,4-4
		c0-7.4,0.1-14.7,0-22.1c0-2.6,0.8-3.5,3.5-3.6c9.5-0.1,9.5-0.1,9.5,9.1C347.1,19.2,347.1,27.6,347.1,36z"/>
	<path class="st1" d="M592.3,69.8c-4.9,0-9.6-0.1-14.3,0c-1.5,0-2.1-0.9-2.9-1.9c-4.6-6.3-9.2-12.6-13.8-18.9
		c-0.6-0.9-1.3-1.7-2.2-2.8c-5.3,7.2-10.4,14.1-15.4,21.1c-1.3,1.9-2.7,2.6-5,2.5c-4.2-0.2-8.3-0.1-12.5-0.1c-0.1-1.5,0.9-2.2,1.6-3
		c7.2-9.5,14.4-19.1,21.7-28.5c1.2-1.6,1.2-2.6,0-4.1c-7.5-9.7-14.9-19.5-22.3-29.2c-0.6-0.8-1.2-1.6-2.2-3c5.5,0,10.6,0,15.6,0
		c1.2,0,1.6,1.2,2.2,2c5,6.8,10,13.5,14.9,20.4c1.2,1.7,1.8,1.8,3.1,0c4.9-6.9,9.9-13.6,14.8-20.4c1.1-1.5,2.2-2.1,4-2
		c4.4,0.1,8.7,0,13.1,0c0,1.5-1,2.2-1.6,3.1c-7.3,9.7-14.6,19.4-22.1,29.1c-1.3,1.6-1.4,2.7,0,4.4c7.3,9.4,14.5,19,21.7,28.5
		C591.3,67.6,592.2,68.3,592.3,69.8z"/>
	<path class="st0" d="M246.7,70.9c-5.6-0.3-12.5,0.7-19.2-0.5c-11.3-2-19.5-11.1-19.9-22.5c-0.3-7.5-0.3-14.9,0-22.4
		c0.6-12.7,10.7-22.3,23.6-22.5c11.3-0.1,22.6,0,34-0.1c2.7,0,3.8,0.8,3.8,3.6c-0.2,9.3,1.1,7.9-7.8,8c-8.8,0.1-17.5,0-26.3,0
		c-9.2,0-13.6,3.7-14.2,12.9c-0.4,6.2-0.2,12.5,0,18.8c0.1,2.9,1,5.8,2.7,8.2c2.1,2.9,4.9,4.4,8.6,4.3c10.9-0.1,21.8,0,32.7,0
		c4.2,0,4.3,0.1,4.2,4.3c-0.1,8.9,1.1,7.6-7.8,7.7C256.6,70.9,252.3,70.9,246.7,70.9z"/>
	<path class="st1" d="M447.4,35.8c0-10.3,0.1-20.6,0-30.9c0-2.2,0.4-3.2,3-3.1c18.7,0.1,37.3,0.1,56,0c2.2,0,3.2,0.5,3,2.9
		c-0.2,2-0.2,4,0,6c0.2,2.1-0.7,2.7-2.8,2.7c-14.2-0.1-28.4,0-42.5-0.1c-2.8,0-3.6,0.7-3.6,3.5c0.1,16.6,0,33.3,0.1,50
		c0,2.5-0.7,3.4-3.2,3.2c-2.3-0.2-4.7-0.2-7,0c-2.3,0.2-2.9-0.8-2.9-3C447.4,56.6,447.4,46.2,447.4,35.8z"/>
	<path class="st0" d="M392.4,41.6c0,8.3-0.1,16.5,0,24.8c0,2.4-0.8,3.5-3.4,3.4c-2-0.1-4.1-0.1-6.1,0c-2.7,0.2-3.6-0.9-3.6-3.5
		c0.1-11.9,0-23.8,0-35.7c0-4.7-0.1-9.5,0-14.2c0-2.2-0.8-3.1-3.1-3c-4.6,0.1-9.2-0.1-13.8,0.1c-2.3,0.1-3.3-0.7-3.3-3.1
		c0.2-10.1-1.2-8.3,8.3-8.4c13.5-0.1,26.9,0,40.4-0.1c3,0,4.2,0.8,4.1,3.9c-0.3,8.9,1,7.5-7.6,7.6c-2.9,0-5.7,0.1-8.6,0
		c-2.6-0.2-3.6,0.8-3.6,3.5C392.5,25,392.4,33.3,392.4,41.6z"/>
	<path class="st0" d="M192.1,36.7c0,10.2-0.1,20.4,0,30.6c0,2.7-0.9,3.9-3.7,3.6c-2.2-0.2-4.5-0.1-6.7,0c-2.3,0.1-3.1-0.9-3-3
		c0.1-5,0-10.1,0-15.1c0-15.2,0-30.5,0-45.7c0-4,0.1-4.1,4.1-4.1c1.9,0,3.9,0.1,5.8,0c2.7-0.2,3.5,1,3.5,3.5
		C192,16.6,192.1,26.6,192.1,36.7z"/>
	<path class="st1" d="M268.7,41.8c-9.9,0-18.8,0-28.7,0c5-4.2,9.4-7.9,13.7-11.6c0.8-0.7,1.3-0.1,1.8,0.4
		C259.6,34.1,263.8,37.6,268.7,41.8z"/>
	<path class="st0" d="M481.5,44.9c-3.8,0-7.5,0-11.3,0c-0.6,0-1.3,0.2-1.6-0.5c-0.3-0.7,0.4-1.1,0.8-1.5c3.5-3,7.1-6,10.6-9
		c1-0.9,1.9-0.8,3,0.1c3.5,3,7.1,6,10.7,9c0.4,0.4,1.1,0.8,0.8,1.5c-0.3,0.6-1.1,0.5-1.6,0.5C489,44.9,485.2,44.9,481.5,44.9z"/>
	<path class="st1" d="M69.8,5.2c0-1.6-0.5-2.3-2.2-2.3C45.6,3,23.7,3,1.7,3.1c0,22.4,0,44.8,0,67.2c14.5,0,28.9,0,43.4,0
		c0.2-0.3,0.3-0.6,0.5-1c-5.4-5.2-10.8-10.4-16.3-15.5c-1.5-1.4-1.7-2.3-0.1-3.8c5.5-5.3,10.8-10.7,16.3-16c1.9-1.8,2.3-3,0.1-4.9
		c-3.6-3.2-7-6.8-10.4-10.2c-4.7-4.6-4.6-4.5,0-9.2c1.6-1.6,2.5-1.2,3.8,0.2c6.5,6.6,13.1,13.1,19.7,19.5c1.7,1.6,1.9,2.5,0.1,4.3
		C53.2,39,47.8,44.6,42.1,50c-1.6,1.5-1.5,2.3,0,3.8C46,57.4,50,61,53.3,65c3.6,4.5,7.9,6.2,13.5,5.4c0.2,0,0.4,0,0.6,0
		c1.6,0.2,2.4-0.4,2.4-2.2C69.7,47.2,69.7,26.2,69.8,5.2z M38.5,30.1c1.4,1.3,1.6,2.1,0.1,3.6C31.7,40.3,24.9,47,18.2,53.8
		c-1.4,1.5-2.3,1.3-3.6,0c-4.6-4.6-4.7-4.5-0.1-9.1c3.7-3.6,7.4-7.3,11-10.9c0.6-0.6,1.3-1,1.5-2c-0.5-0.5-1-1.1-1.6-1.7
		c-4.5-4.5-9-9-13.6-13.4c-1.4-1.3-1.5-2.1-0.1-3.6c4.7-4.6,4.6-4.7,9.2-0.2C26.8,18.6,32.6,24.4,38.5,30.1z"/>
	<path class="st0" d="M163.8,68.2c-4.3-5.8-8.5-11.6-13-17.2c-1.7-2.1-1.6-3,0.9-4.4c9.5-5.4,13-15.6,10.5-26.5
		c-2.5-10.8-10.8-17-21.9-17c-9.4-0.1-18.8,0-28.2,0c-3.7,0-3.9,0.2-3.9,4c0,10,0,20,0,30c0,10.2,0.1,20.4,0,30.6
		c0,2.5,0.8,3.5,3.4,3.4c2.1-0.1,4.3-0.1,6.4,0c2.4,0.1,3.3-0.8,3.2-3.2c-0.1-5.2,0-10.5,0-15.7c0-2.1,0.8-3,2.9-2.9
		c2.1,0.1,4.3,0.1,6.4,0c2.6-0.2,4.4,0.7,5.8,3c2.3,3.5,5.2,6.6,7.2,10.2c3.8,7,9.3,10.3,17.3,8.7c0.5-0.1,1,0,1.5,0
		c0.9-0.1,2.1,0.4,2.6-0.4C165.4,69.6,164.3,68.9,163.8,68.2z M138.8,37.6c-4.8,0.1-9.6-0.1-14.4,0.1c-2.6,0.1-3.5-0.9-3.3-3.4
		c0.1-2.8,0-5.7,0-8.5s0-5.7,0-8.5c0-1.8,0.6-2.8,2.6-2.8c5.7,0.1,11.4,0,17.1,0.1c1.7,0,3.2,0.6,4.5,1.6c3.7,2.7,5.4,8.9,3.7,14.1
		C147.7,34.9,144,37.5,138.8,37.6z"/>
</g>
</svg>
