<?xml version="1.0" encoding="UTF-8"?>
<!DOCTYPE svg PUBLIC "-//W3C//DTD SVG 1.0//EN" "http://www.w3.org/TR/2001/REC-SVG-20010904/DTD/svg10.dtd">
<!-- Creator: CorelDRAW 2020 (64-Bit) -->
<svg xmlns="http://www.w3.org/2000/svg" xml:space="preserve" width="2.95276in" height="2.95276in" version="1.0" style="shape-rendering:geometricPrecision; text-rendering:geometricPrecision; image-rendering:optimizeQuality; fill-rule:evenodd; clip-rule:evenodd"
viewBox="0 0 1369.21 1369.21"
 xmlns:xlink="http://www.w3.org/1999/xlink"
 xmlns:xodm="http://www.corel.com/coreldraw/odm/2003">
 <defs>
  <style type="text/css">
   <![CDATA[
    .fil0 {fill:none}
    .fil1 {fill:#070919;fill-rule:nonzero;fill-opacity:0.200000}
   ]]>
  </style>
 </defs>
 <g id="Layer_x0020_1">
  <metadata id="CorelCorpID_0Corel-Layer"/>
  <rect class="fil0" x="-0" y="0" width="1369.21" height="1369.21"/>
  <path class="fil1" d="M692.56 601.37l-126.07 0c-23.2,0 -42.02,18.82 -42.02,42.02 0,23.2 18.82,42.02 42.02,42.02l63.03 0c0,23.2 18.82,42.02 42.02,42.02 23.21,0 42.02,-18.82 42.02,-42.02l0 -1.89c60.31,-10.56 104.33,-62.95 104.33,-124.18 0,-69.34 -56.01,-125.68 -125.35,-126.07l-42.02 0c-23.2,0 -42.02,-18.82 -42.02,-42.02 0,-23.21 18.82,-42.02 42.02,-42.02l126.07 0c23.2,0 42.02,-18.82 42.02,-42.02 0,-23.2 -18.82,-42.02 -42.02,-42.02l-63.03 0c0,-23.21 -18.82,-42.02 -42.02,-42.02 -23.2,0 -42.02,18.82 -42.02,42.02l0 1.89c-60.31,10.56 -104.33,62.95 -104.33,124.18 0,69.34 56.01,125.68 125.35,126.07l42.02 -0c23.2,0 42.02,18.82 42.02,42.02 0,23.21 -18.82,42.02 -42.02,42.02z"/>
  <path class="fil1" d="M1240.85 427.9l-130.5 0c-21.94,-218.56 -206.03,-385.14 -425.74,-385.14 -219.71,0 -403.8,166.59 -425.74,385.15l-130.51 -0.01c-70.88,0 -128.36,57.48 -128.36,128.36l-0 641.82c0,70.88 57.48,128.36 128.36,128.36l1112.48 0c70.88,0 128.36,-57.48 128.36,-128.36l0 -641.82c0,-70.88 -57.48,-128.36 -128.36,-128.36zm-186.34 256.73c21.01,3.07 36.59,21.1 36.59,42.34 0,0.15 0,0.3 0,0.45 -0,23.63 -19.16,42.79 -42.79,42.79l-58.41 0c25,-25.67 46.74,-54.5 64.6,-85.6l0.01 0.02zm-369.9 -556.24c189.02,-0 342.3,153.29 342.3,342.3 0,0.23 0,0.56 0,0.81 0,52.48 -12.26,104.39 -35.72,151.3 -31.04,62.37 -80.39,113.85 -141.4,147.41l-330.34 -0c-61.03,-33.55 -110.38,-85.04 -141.39,-147.39 -23.48,-46.93 -35.75,-98.84 -35.75,-151.32 0,-0.25 0,-0.58 0,-0.83 0,-189 153.29,-342.28 342.3,-342.28l0 0zm-369.9 556.24c17.7,31.05 39.34,59.89 64.18,85.57l-57.98 0.01c-23.63,-0 -42.79,-19.16 -42.79,-42.79 -0,-0.08 -0,-0.17 -0,-0.25 0,-11.18 4.38,-21.93 12.2,-29.92 6.56,-6.7 15.12,-11.14 24.39,-12.62l-0 -0zm968.93 513.46c0,23.63 -19.16,42.79 -42.79,42.79l-1112.48 0c-23.63,0 -42.79,-19.16 -42.79,-42.79l-0 -641.82c0,-23.63 19.16,-42.79 42.79,-42.79l130.5 0c2.87,31.54 9.36,62.79 19.26,92.87 -51.28,18.09 -85.58,66.61 -85.58,121.01 0,0.02 0,0.05 0,0.06 0,70.89 57.48,128.37 128.36,128.37l727.39 0c0.07,0 0.13,0 0.19,0 70.88,0 128.36,-57.48 128.36,-128.36 0,-54.46 -34.4,-103.02 -85.77,-121.09 9.9,-30.06 16.39,-61.31 19.25,-92.86l130.51 0.02c23.63,0 42.79,19.16 42.79,42.79l0 641.82z"/>
  <path class="fil1" d="M1175.83 1105.65c0,-23.21 -18.81,-42.02 -42.02,-42.02 -23.21,0 -42.02,18.81 -42.02,42.02 0,23.21 18.81,42.02 42.02,42.02 23.21,0 42.02,-18.81 42.02,-42.02z"/>
  <path class="fil1" d="M1007.74 1105.65c0,-23.21 -18.81,-42.02 -42.02,-42.02 -23.21,0 -42.02,18.81 -42.02,42.02 0,23.21 18.81,42.02 42.02,42.02 23.21,0 42.02,-18.81 42.02,-42.02z"/>
 </g>
</svg>
