<svg width="30" height="30" viewBox="0 0 30 30" fill="none" xmlns="http://www.w3.org/2000/svg">
<path d="M23.75 8.75C23.4185 8.75 23.1005 8.8817 22.8661 9.11612C22.6317 9.35054 22.5 9.66848 22.5 10V23.9888C22.4641 24.6209 22.18 25.2132 21.7094 25.6367C21.2388 26.0603 20.6199 26.2807 19.9875 26.25H10.0125C9.38012 26.2807 8.76123 26.0603 8.29063 25.6367C7.82004 25.2132 7.53586 24.6209 7.5 23.9888V10C7.5 9.66848 7.3683 9.35054 7.13388 9.11612C6.89946 8.8817 6.58152 8.75 6.25 8.75C5.91848 8.75 5.60054 8.8817 5.36612 9.11612C5.1317 9.35054 5 9.66848 5 10V23.9888C5.03568 25.284 5.58323 26.5124 6.52273 27.4048C7.46222 28.2972 8.71709 28.7809 10.0125 28.75H19.9875C21.2829 28.7809 22.5378 28.2972 23.4773 27.4048C24.4168 26.5124 24.9643 25.284 25 23.9888V10C25 9.66848 24.8683 9.35054 24.6339 9.11612C24.3995 8.8817 24.0815 8.75 23.75 8.75Z" fill="#787878"/>
<path d="M25 5H20V2.5C20 2.16848 19.8683 1.85054 19.6339 1.61612C19.3995 1.3817 19.0815 1.25 18.75 1.25H11.25C10.9185 1.25 10.6005 1.3817 10.3661 1.61612C10.1317 1.85054 10 2.16848 10 2.5V5H5C4.66848 5 4.35054 5.1317 4.11612 5.36612C3.8817 5.60054 3.75 5.91848 3.75 6.25C3.75 6.58152 3.8817 6.89946 4.11612 7.13388C4.35054 7.3683 4.66848 7.5 5 7.5H25C25.3315 7.5 25.6495 7.3683 25.8839 7.13388C26.1183 6.89946 26.25 6.58152 26.25 6.25C26.25 5.91848 26.1183 5.60054 25.8839 5.36612C25.6495 5.1317 25.3315 5 25 5ZM12.5 5V3.75H17.5V5H12.5Z" fill="#787878"/>
<path d="M13.75 21.25V12.5C13.75 12.1685 13.6183 11.8505 13.3839 11.6161C13.1495 11.3817 12.8315 11.25 12.5 11.25C12.1685 11.25 11.8505 11.3817 11.6161 11.6161C11.3817 11.8505 11.25 12.1685 11.25 12.5V21.25C11.25 21.5815 11.3817 21.8995 11.6161 22.1339C11.8505 22.3683 12.1685 22.5 12.5 22.5C12.8315 22.5 13.1495 22.3683 13.3839 22.1339C13.6183 21.8995 13.75 21.5815 13.75 21.25Z" fill="#787878"/>
<path d="M18.75 21.25V12.5C18.75 12.1685 18.6183 11.8505 18.3839 11.6161C18.1495 11.3817 17.8315 11.25 17.5 11.25C17.1685 11.25 16.8505 11.3817 16.6161 11.6161C16.3817 11.8505 16.25 12.1685 16.25 12.5V21.25C16.25 21.5815 16.3817 21.8995 16.6161 22.1339C16.8505 22.3683 17.1685 22.5 17.5 22.5C17.8315 22.5 18.1495 22.3683 18.3839 22.1339C18.6183 21.8995 18.75 21.5815 18.75 21.25Z" fill="#787878"/>
</svg>
