<?xml version="1.0" standalone="no"?>
<!DOCTYPE svg PUBLIC "-//W3C//DTD SVG 20010904//EN"
 "http://www.w3.org/TR/2001/REC-SVG-20010904/DTD/svg10.dtd">
<svg version="1.0" xmlns="http://www.w3.org/2000/svg"
 width="886.000000pt" height="886.000000pt" viewBox="0 0 886.000000 886.000000"
 preserveAspectRatio="xMidYMid meet">
<metadata>
Created by potrace 1.16, written by Peter Selinger 2001-2019
</metadata>
<g transform="translate(0.000000,886.000000) scale(0.100000,-0.100000)"
fill="#000000" stroke="none">
<path d="M4260 8584 c-597 -53 -1059 -225 -1510 -563 -141 -106 -408 -369
-512 -506 -302 -399 -480 -819 -553 -1302 -8 -57 -15 -105 -15 -107 0 -2 -217
-6 -483 -8 -457 -4 -486 -6 -561 -26 -304 -84 -536 -318 -606 -613 -20 -86
-20 -99 -18 -2305 l3 -2219 23 -70 c55 -161 154 -308 277 -408 72 -58 233
-138 330 -164 67 -17 215 -18 3795 -18 3580 0 3728 1 3795 18 97 26 258 106
330 164 123 100 222 247 277 408 l23 70 3 2219 c2 2206 2 2219 -18 2305 -70
295 -304 531 -605 613 -76 20 -107 22 -562 26 -266 2 -483 6 -483 8 0 25 -36
234 -56 324 -178 799 -723 1493 -1463 1865 -279 139 -570 228 -887 270 -116
15 -434 27 -524 19z m525 -588 c295 -54 554 -150 785 -290 884 -539 1280
-1606 959 -2581 -50 -150 -159 -376 -245 -509 -179 -273 -436 -524 -704 -685
l-85 -51 -1065 0 -1065 0 -85 51 c-185 112 -404 299 -545 469 -216 259 -395
623 -464 943 -193 898 180 1807 954 2322 258 171 610 300 940 344 110 15 514
6 620 -13z m-3115 -2473 c2 -77 59 -372 95 -489 14 -45 25 -85 25 -88 0 -3
-29 -19 -63 -35 -172 -77 -326 -230 -407 -402 -53 -114 -73 -209 -74 -354 0
-158 15 -228 84 -370 100 -207 261 -348 487 -426 l98 -34 2480 -3 c2746 -3
2555 -7 2715 61 352 152 559 522 500 897 -44 277 -222 513 -476 632 -35 16
-64 32 -64 35 0 3 11 42 25 87 36 117 93 412 95 489 0 13 891 7 927 -6 66 -25
119 -73 152 -137 l31 -63 0 -2127 c0 -2357 5 -2175 -66 -2258 -19 -22 -57 -52
-86 -66 l-52 -26 -3666 0 -3666 0 -52 26 c-29 14 -67 44 -86 66 -71 83 -66
-99 -66 2258 l0 2127 31 63 c33 64 86 112 152 137 36 13 927 19 927 6z m384
-1135 c75 -130 229 -337 329 -445 l61 -64 -220 3 c-203 3 -222 5 -260 25 -66
35 -101 70 -129 127 -66 135 -6 306 129 367 57 26 69 24 90 -13z m4854 6 c129
-64 182 -226 118 -358 -29 -59 -64 -94 -130 -129 -38 -20 -57 -22 -259 -25
l-219 -3 81 91 c102 116 179 218 261 347 36 57 72 103 81 103 8 0 38 -12 67
-26z"/>
<path d="M4257 7406 c-100 -37 -170 -121 -183 -219 -4 -27 -12 -50 -18 -52
-249 -72 -374 -151 -498 -315 -111 -146 -160 -297 -160 -490 0 -244 79 -430
255 -596 92 -88 183 -143 307 -185 94 -32 97 -33 340 -38 229 -6 248 -8 292
-30 88 -42 158 -150 158 -241 0 -91 -70 -198 -157 -241 l-48 -24 -485 -5 -485
-5 -47 -27 c-96 -57 -144 -151 -136 -262 8 -100 62 -181 152 -229 38 -21 56
-22 284 -25 l242 -3 0 -28 c0 -15 14 -56 31 -91 48 -96 132 -148 240 -149 145
-2 257 93 277 236 l7 46 58 14 c217 49 437 231 537 444 53 113 73 209 73 349
0 243 -80 430 -255 596 -83 78 -158 126 -262 168 -109 44 -198 56 -405 56
-235 0 -271 9 -347 85 -91 90 -106 203 -43 313 31 55 72 91 135 119 35 16 87
18 519 23 472 5 481 5 521 27 160 86 192 313 63 442 -71 70 -96 76 -361 79
l-238 3 -1 27 c-2 74 -64 165 -139 206 -64 35 -163 45 -223 22z"/>
<path d="M6135 1957 c-56 -27 -119 -91 -143 -146 -20 -47 -20 -165 0 -212 22
-51 84 -116 132 -141 56 -29 150 -35 214 -14 187 63 247 310 109 454 -51 53
-102 75 -187 79 -64 3 -83 0 -125 -20z"/>
<path d="M7208 1947 c-102 -53 -156 -151 -145 -268 12 -135 115 -236 253 -247
111 -8 205 40 262 136 24 42 27 57 27 137 0 80 -3 95 -27 137 -54 90 -140 138
-249 138 -45 0 -71 -7 -121 -33z"/>
</g>
</svg>
