<svg xmlns="http://www.w3.org/2000/svg" viewBox="0 0 24 24"><symbol xmlns="http://www.w3.org/2000/svg" fill="none" viewBox="0 0 24 24" id="73295"><path d="M11.5 22a9.5 9.5 0 110-19 9.5 9.5 0 010 19zm0-17.417a7.917 7.917 0 100 15.834 7.917 7.917 0 000-15.834zm3.167 11.875a.785.785 0 01-.784-.791v-3.95a.784.784 0 111.567 0v3.95a.785.785 0 01-.783.791zm-3.167 0a.792.792 0 01-.792-.791V9.333a.792.792 0 011.584 0v6.334a.792.792 0 01-.792.791zm-3.167 0a.785.785 0 01-.783-.791V13.3a.784.784 0 111.567 0v2.367a.785.785 0 01-.784.791z" fill="#0D6FFB"></path></symbol><use xlink:href="#73295"></use></svg>